<?xml version="1.0" encoding="utf-8"?>
<svg viewBox="616.54 261.818 664.398 370.557" style="enable-background:new 0 0 1920 1080;" xmlns="http://www.w3.org/2000/svg">
  <defs>
    <style type="text/css">
	.st0{fill:#032D2C;}
	.st1{fill:#22CD5A;}
</style>
  </defs>
  <g id="v">
    <path class="st0" d="M667.55,520.16l-26.37-58.13h7.17l19.64,45.03l19.73-45.03h6.99l-26.28,58.13H667.55z"/>
    <path class="st0" d="M859.32,520.25l-39.72-44.59v43.71h-6.28v-58.22h0.89l39.72,44.68v-43.79h6.28v58.21H859.32z"/>
    <path class="st0" d="M919.68,519.36v-51.85h-17.25v-5.48h40.96v5.48h-17.25v51.85H919.68z"/>
    <path class="st0" d="M985.62,496.36v-34.33h6.46v32.91c0,6.72,1.21,11.64,3.63,14.73c2.42,3.1,6.34,4.64,11.77,4.64&#10;&#9;&#9;s9.38-1.55,11.86-4.64c2.48-3.1,3.72-8.01,3.72-14.73v-32.91h6.37v34.24c0,8.26-1.8,14.32-5.4,18.18c-3.6,3.86-9.08,5.8-16.46,5.8&#10;&#9;&#9;c-7.49,0-13.02-1.96-16.59-5.88C987.4,510.44,985.62,504.44,985.62,496.36z"/>
    <path class="st0" d="M1071.64,519.36v-57.33h17.7c7.19,0,12.53,1.28,16.01,3.85c3.48,2.57,5.22,7.18,5.22,13.85&#10;&#9;&#9;c0,4.95-0.96,8.82-2.87,11.59c-1.92,2.77-4.97,4.57-9.16,5.4l14.78,22.65h-7.7l-13.71-21.85h-13.8v21.85H1071.64z M1078.1,492.11&#10;&#9;&#9;h10.44c5.72,0,9.73-0.83,12.03-2.48c2.3-1.65,3.45-4.95,3.45-9.91c0-4.78-1.21-8.01-3.63-9.69c-2.42-1.68-6.49-2.52-12.21-2.52&#10;&#9;&#9;h-10.09V492.11z"/>
    <path class="st0" d="M1155.54,519.36v-57.33h33.09v5.48H1162v19.91h19.73v5.4H1162v20.97h27.69v5.57H1155.54z"/>
    <path class="st0" d="M736.93,519.36v-57.33h33.09v5.48h-26.63v19.91h19.73v5.4h-19.73v20.97h27.69v5.57H736.93z"/>
    <path class="st0" d="M1231.92,516.8v-6.72c4.54,2.95,9.47,4.42,14.77,4.42c7.9,0,11.86-3.3,11.86-9.91&#10;&#9;&#9;c-0.18-3.01-1.09-5.24-2.74-6.68c-1.65-1.44-4.66-3.14-9.02-5.09c-3.01-1.3-5.52-2.53-7.52-3.72c-4.54-2.83-6.81-6.99-6.81-12.47&#10;&#9;&#9;c0-4.78,1.52-8.55,4.56-11.33c3.04-2.77,7.24-4.16,12.61-4.16c5.07,0,9.5,1,13.27,3.01v6.64c-4.01-2.65-8.29-3.98-12.83-3.98&#10;&#9;&#9;c-3.42,0-6.12,0.84-8.1,2.52c-1.98,1.68-2.96,4-2.96,6.94c0,1.89,0.5,3.51,1.5,4.87c1.65,2.07,4.95,4.13,9.91,6.19&#10;&#9;&#9;c2.83,1.18,5.4,2.45,7.7,3.81c4.72,2.89,7.08,7.22,7.08,13c0,5.25-1.61,9.25-4.82,11.99c-3.22,2.74-7.71,4.11-13.49,4.11&#10;&#9;&#9;C1241.38,520.25,1236.4,519.1,1231.92,516.8z"/>
  </g>
  <path class="st1" d="M830.12,309.64h-0.28c-8.93,0-17.41,1.73-25.38,5.19c-7.99,3.46-14.96,8.18-20.92,14.14&#10;&#9;c-5.96,5.98-10.68,12.95-14.14,20.92c-1.19,2.72-2.17,5.5-2.95,8.35c-2.19,7.99-5.62,15.64-10.89,22.04&#10;&#9;c-4.61,5.6-9.37,9.95-14.09,13.32c-12.9,9.23-25.48,11.2-33.61,11.24c-1.29,0.12-2.59,0.19-3.93,0.19c-1.85,0-3.65-0.14-5.4-0.4&#10;&#9;c-2.76-0.42-5.4-1.17-7.95-2.24c-4.16-1.75-7.78-4.14-10.84-7.15c-3.08-3.04-5.52-6.59-7.32-10.66c-1.8-4.09-2.69-8.44-2.69-13.09&#10;&#9;v-33.3h45.79c2.01,0,3.9-0.37,5.66-1.1c1.75-0.75,3.3-1.75,4.6-3.04c1.31-1.26,2.34-2.76,3.08-4.46c0.75-1.73,1.12-3.53,1.12-5.47&#10;&#9;c0-2.01-0.37-3.9-1.12-5.66c-0.75-1.75-1.78-3.3-3.08-4.6c-1.31-1.31-2.85-2.34-4.6-3.08c-1.75-0.75-3.65-1.12-5.66-1.12h-45.79&#10;&#9;v-22.9c0-2.01-0.37-3.9-1.12-5.66c-0.75-1.75-1.75-3.27-3.01-4.6c-1.29-1.31-2.78-2.34-4.49-3.08c-1.71-0.75-3.53-1.12-5.45-1.12&#10;&#9;c-1.94,0-3.79,0.37-5.54,1.12s-3.3,1.78-4.6,3.08c-1.31,1.33-2.36,2.85-3.16,4.6c-0.79,1.75-1.19,3.65-1.19,5.66v84.46&#10;&#9;c0,8.69,1.66,16.83,4.93,24.4c3.3,7.6,7.78,14.21,13.49,19.82c5.7,5.61,12.36,10.03,19.94,13.28c7.6,3.25,15.73,4.88,24.4,4.88&#10;&#9;c4.02,0,7.9-0.33,11.64-1.03c14.79-1.5,31.92-7.84,48.61-21.24c20.7-16.63,29.87-46.86,31.58-50.62c2.03-4.46,4.7-8.37,8.04-11.71&#10;&#9;c3.32-3.34,7.25-5.96,11.78-7.9c4.51-1.92,9.26-2.9,14.26-2.9h0.28c2.01,0,3.93-0.37,5.7-1.1c1.8-0.75,3.39-1.75,4.74-3.04&#10;&#9;c1.36-1.26,2.43-2.78,3.23-4.53s1.19-3.65,1.19-5.66c0-4.14-1.31-7.53-3.88-10.19C838.51,310.97,834.84,309.64,830.12,309.64z"/>
  <path class="st0" d="M956.75,326.47c-5.66-5.7-12.32-10.19-19.94-13.49c-7.64-3.27-15.8-4.93-24.47-4.93&#10;&#9;c-8.6,0-16.69,1.66-24.28,4.93c-7.57,3.3-14.23,7.78-19.91,13.49c-5.7,5.7-10.24,12.36-13.56,19.94c-3.34,7.6-5,15.73-5,24.4&#10;&#9;c0,8.6,1.66,16.71,5,24.35c3.32,7.62,7.85,14.28,13.56,19.98c5.68,5.7,12.34,10.21,19.91,13.49c7.6,3.3,15.68,4.95,24.28,4.95&#10;&#9;c6.4,0,12.53-1.1,18.35-3.3c5.84-2.2,11.24-5.19,16.24-8.95c0.79,3.06,2.38,5.61,4.74,7.62c2.36,2.03,5.26,3.04,8.69,3.04&#10;&#9;c2.01,0,3.9-0.4,5.7-1.19c1.8-0.79,3.37-1.85,4.67-3.16c1.33-1.31,2.36-2.85,3.11-4.6c0.72-1.75,1.1-3.65,1.1-5.66V370.8&#10;&#9;c0-8.67-1.61-16.8-4.86-24.4C966.84,338.83,962.4,332.17,956.75,326.47z M943.77,384.03c-1.75,4.16-4.16,7.81-7.22,10.91&#10;&#9;c-3.09,3.13-6.71,5.59-10.87,7.39c-4.16,1.8-8.6,2.69-13.35,2.69s-9.16-0.89-13.3-2.69c-4.11-1.8-7.74-4.25-10.84-7.39&#10;&#9;c-3.11-3.11-5.56-6.75-7.36-10.91c-1.8-4.16-2.71-8.58-2.71-13.23c0-4.72,0.91-9.19,2.71-13.35c1.8-4.16,4.25-7.78,7.36-10.84&#10;&#9;c3.11-3.08,6.75-5.52,10.91-7.32s8.58-2.69,13.23-2.69c4.74,0,9.19,0.89,13.35,2.69c4.16,1.8,7.78,4.23,10.87,7.32&#10;&#9;c3.06,3.06,5.47,6.68,7.22,10.84c1.75,4.16,2.64,8.62,2.64,13.35C946.42,375.45,945.53,379.87,943.77,384.03z"/>
  <path class="st1" d="M1114.74,266.68c-1.26-1.36-2.78-2.41-4.53-3.16c-1.75-0.75-3.65-1.12-5.66-1.12c-2.1,0-4.02,0.37-5.73,1.12&#10;&#9;c-1.71,0.75-3.2,1.8-4.46,3.16c-1.29,1.36-2.27,2.94-2.97,4.74c-0.7,1.8-1.05,3.74-1.05,5.84v41.04c-5-3.23-10.38-5.75-16.1-7.55&#10;&#9;c-5.75-1.8-11.78-2.71-18.09-2.71c-8.69,0-16.83,1.66-24.42,4.93c-7.57,3.3-14.21,7.76-19.87,13.44&#10;&#9;c-5.66,5.66-10.12,12.29-13.42,19.91c-3.3,7.64-4.93,15.8-4.93,24.47c0,8.6,1.64,16.71,4.93,24.35c3.3,7.62,7.76,14.28,13.42,19.98&#10;&#9;c5.66,5.7,12.29,10.21,19.87,13.49c7.6,3.3,15.73,4.95,24.42,4.95c8.58,0,16.66-1.66,24.26-4.95c7.6-3.27,14.21-7.74,19.87-13.35&#10;&#9;c5.66-5.61,10.14-12.2,13.49-19.8c3.34-7.6,5.05-15.64,5.14-24.14v-94.07c0-2.1-0.37-4.04-1.12-5.84&#10;&#9;C1117.03,269.63,1116.02,268.04,1114.74,266.68z M1087.65,384.03c-1.8,4.16-4.25,7.81-7.39,10.91c-3.11,3.13-6.73,5.59-10.84,7.39&#10;&#9;c-4.11,1.8-8.55,2.69-13.28,2.69c-4.74,0-9.21-0.89-13.37-2.69c-4.16-1.8-7.78-4.25-10.84-7.39c-3.09-3.11-5.49-6.75-7.25-10.91&#10;&#9;c-1.75-4.16-2.62-8.58-2.62-13.23c0-4.72,0.86-9.19,2.62-13.35c1.75-4.16,4.18-7.78,7.32-10.84c3.11-3.08,6.73-5.52,10.84-7.32&#10;&#9;s8.55-2.69,13.3-2.69c4.72,0,9.16,0.89,13.28,2.69c4.11,1.8,7.74,4.23,10.84,7.32c3.13,3.06,5.59,6.68,7.39,10.84&#10;&#9;c1.8,4.16,2.69,8.62,2.69,13.35C1090.34,375.45,1089.45,379.87,1087.65,384.03z"/>
  <path class="st1" d="M1259.99,345.82c-3.39-7.55-7.95-14.09-13.7-19.68c-5.73-5.56-12.41-9.98-19.98-13.2&#10;&#9;c-7.6-3.25-15.68-4.88-24.28-4.88c-8.67,0-16.83,1.66-24.47,4.93c-7.62,3.3-14.3,7.76-19.98,13.44&#10;&#9;c-5.7,5.66-10.24,12.29-13.56,19.91c-3.34,7.64-5,15.8-5,24.47c0,8.69,1.66,16.83,5,24.42c3.32,7.57,7.85,14.21,13.56,19.91&#10;&#9;c5.68,5.7,12.36,10.21,19.98,13.49c7.64,3.3,15.8,4.95,24.47,4.95c5,0,9.49-0.37,13.49-1.12c4-0.75,7.6-1.73,10.8-2.97&#10;&#9;c3.2-1.24,6.03-2.64,8.48-4.28c2.45-1.61,4.65-3.32,6.57-5.07c1.68-1.31,2.92-2.78,3.76-4.39c0.82-1.64,1.36-3.27,1.57-4.93&#10;&#9;c0.23-1.68,0.14-3.32-0.26-4.93c-0.4-1.64-1.03-3.16-1.92-4.56c-1.22-2.01-2.8-3.65-4.72-4.93c-1.94-1.26-4.14-1.89-6.59-1.89&#10;&#9;c-1.5,0-3.06,0.28-4.72,0.84c-1.68,0.58-3.39,1.47-5.14,2.71c-5.17,4.72-12.27,7.11-21.31,7.11c-3.6,0-7.01-0.51-10.26-1.52&#10;&#9;c-3.25-1.01-6.22-2.45-8.95-4.35c-2.71-1.89-5.09-4.16-7.15-6.85c-2.08-2.66-3.67-5.63-4.81-8.88h80.26c4.21,0,7.6-1.24,10.19-3.74&#10;&#9;c2.59-2.5,3.88-5.77,3.88-9.79C1265.09,361.43,1263.36,353.37,1259.99,345.82z M1169.94,359.89c0.96-3.51,2.45-6.68,4.46-9.54&#10;&#9;c2.01-2.85,4.44-5.31,7.29-7.36c2.85-2.06,6.05-3.65,9.61-4.74c3.55-1.1,7.36-1.64,11.38-1.64c4.04,0,7.85,0.51,11.45,1.57&#10;&#9;c3.6,1.05,6.85,2.59,9.75,4.6c2.87,2.03,5.35,4.49,7.43,7.39c2.06,2.9,3.55,6.12,4.53,9.72H1169.94z"/>
  <path class="st1" d="M792.98,385.03v35.29c0,7.32-5.94,13.25-13.28,13.25c-7.32,0-13.25-5.94-13.25-13.25v-1.89&#10;&#9;c0.72-0.54,1.43-1.1,2.13-1.66C779.59,407.92,787.56,395.65,792.98,385.03z"/>
  <circle class="st1" cx="912.27" cy="370.81" r="22.97"/>
  <g>
    <g>
      <path class="st1" d="M659.36,548.41h7.74l17.93,47.52h-8.06l-3.92-10.87h-19.58l-3.96,10.87h-8.1L659.36,548.41z M655.9,578.32&#10;&#9;&#9;&#9;h14.69l-7.31-20.7h-0.11L655.9,578.32z"/>
      <path class="st1" d="M704.5,590.56c1.7,0,3.09-0.28,4.16-0.85c1.07-0.56,1.76-0.98,2.07-1.24l3.64,5.4&#10;&#9;&#9;&#9;c-0.29,0.24-0.89,0.59-1.8,1.06c-0.91,0.47-2.07,0.89-3.47,1.28c-1.4,0.38-2.99,0.58-4.77,0.58c-2.93,0-5.59-0.62-7.97-1.85&#10;&#9;&#9;&#9;c-2.39-1.24-4.3-3.02-5.72-5.36c-1.43-2.34-2.14-5.15-2.14-8.44c0-3.31,0.71-6.13,2.14-8.46c1.43-2.33,3.34-4.1,5.72-5.33&#10;&#9;&#9;&#9;c2.39-1.22,5.05-1.84,7.97-1.84c1.75,0,3.32,0.2,4.7,0.59c1.38,0.4,2.53,0.85,3.44,1.35c0.91,0.5,1.52,0.9,1.84,1.19l-3.71,5.4&#10;&#9;&#9;&#9;c-0.17-0.17-0.51-0.44-1.03-0.81c-0.52-0.37-1.19-0.71-2.03-1.03c-0.84-0.31-1.85-0.47-3.02-0.47c-1.44,0-2.82,0.38-4.14,1.15&#10;&#9;&#9;&#9;c-1.32,0.77-2.4,1.85-3.24,3.26c-0.84,1.4-1.26,3.07-1.26,4.99s0.42,3.59,1.26,5c0.84,1.42,1.92,2.51,3.24,3.28&#10;&#9;&#9;&#9;C701.68,590.18,703.06,590.56,704.5,590.56z"/>
      <path class="st1" d="M734.89,590.56c1.7,0,3.09-0.28,4.16-0.85c1.07-0.56,1.76-0.98,2.07-1.24l3.64,5.4&#10;&#9;&#9;&#9;c-0.29,0.24-0.89,0.59-1.8,1.06c-0.91,0.47-2.07,0.89-3.47,1.28c-1.4,0.38-2.99,0.58-4.77,0.58c-2.93,0-5.59-0.62-7.97-1.85&#10;&#9;&#9;&#9;c-2.39-1.24-4.3-3.02-5.72-5.36c-1.43-2.34-2.14-5.15-2.14-8.44c0-3.31,0.71-6.13,2.14-8.46c1.43-2.33,3.34-4.1,5.72-5.33&#10;&#9;&#9;&#9;c2.39-1.22,5.05-1.84,7.97-1.84c1.75,0,3.32,0.2,4.7,0.59c1.38,0.4,2.53,0.85,3.44,1.35c0.91,0.5,1.52,0.9,1.84,1.19l-3.71,5.4&#10;&#9;&#9;&#9;c-0.17-0.17-0.51-0.44-1.03-0.81c-0.52-0.37-1.19-0.71-2.03-1.03c-0.84-0.31-1.85-0.47-3.02-0.47c-1.44,0-2.82,0.38-4.14,1.15&#10;&#9;&#9;&#9;c-1.32,0.77-2.4,1.85-3.24,3.26c-0.84,1.4-1.26,3.07-1.26,4.99s0.42,3.59,1.26,5c0.84,1.42,1.92,2.51,3.24,3.28&#10;&#9;&#9;&#9;C732.07,590.18,733.45,590.56,734.89,590.56z"/>
      <path class="st1" d="M755.98,582.97c0.05,1.56,0.42,2.96,1.12,4.21c0.7,1.25,1.72,2.23,3.08,2.93c1.36,0.71,3.02,1.06,4.99,1.06&#10;&#9;&#9;&#9;c1.7,0,3.17-0.23,4.41-0.7c1.24-0.47,2.26-1.03,3.08-1.69c0.82-0.66,1.42-1.28,1.8-1.85l3.42,4.64c-0.74,1.01-1.68,1.91-2.81,2.7&#10;&#9;&#9;&#9;c-1.13,0.79-2.53,1.41-4.19,1.85c-1.67,0.44-3.73,0.67-6.17,0.67c-3.22,0-6.01-0.66-8.39-1.98c-2.38-1.32-4.22-3.18-5.53-5.58&#10;&#9;&#9;&#9;c-1.31-2.4-1.96-5.21-1.96-8.42c0-2.88,0.6-5.48,1.8-7.79c1.2-2.32,2.95-4.15,5.24-5.49c2.29-1.34,5.05-2.02,8.26-2.02&#10;&#9;&#9;&#9;c3,0,5.6,0.6,7.81,1.8c2.21,1.2,3.92,2.92,5.13,5.17c1.21,2.24,1.82,4.95,1.82,8.12c0,0.19-0.01,0.59-0.02,1.19&#10;&#9;&#9;&#9;c-0.01,0.6-0.04,1-0.09,1.19H755.98z M771.68,577.35c-0.02-0.77-0.28-1.64-0.77-2.63c-0.49-0.98-1.28-1.84-2.36-2.57&#10;&#9;&#9;&#9;c-1.08-0.73-2.52-1.1-4.32-1.1c-1.85,0-3.35,0.35-4.5,1.06c-1.15,0.71-2,1.55-2.56,2.52c-0.55,0.97-0.88,1.88-0.97,2.72H771.68z"/>
      <path class="st1" d="M793.57,595.93h-7.74v-49.54h7.74V595.93z"/>
      <path class="st1" d="M807.57,582.97c0.05,1.56,0.42,2.96,1.12,4.21c0.7,1.25,1.72,2.23,3.08,2.93c1.36,0.71,3.02,1.06,4.99,1.06&#10;&#9;&#9;&#9;c1.7,0,3.17-0.23,4.41-0.7c1.24-0.47,2.26-1.03,3.08-1.69c0.82-0.66,1.42-1.28,1.8-1.85l3.42,4.64c-0.74,1.01-1.68,1.91-2.81,2.7&#10;&#9;&#9;&#9;c-1.13,0.79-2.53,1.41-4.19,1.85c-1.67,0.44-3.73,0.67-6.17,0.67c-3.22,0-6.01-0.66-8.39-1.98c-2.38-1.32-4.22-3.18-5.53-5.58&#10;&#9;&#9;&#9;c-1.31-2.4-1.96-5.21-1.96-8.42c0-2.88,0.6-5.48,1.8-7.79c1.2-2.32,2.95-4.15,5.24-5.49c2.29-1.34,5.05-2.02,8.26-2.02&#10;&#9;&#9;&#9;c3,0,5.6,0.6,7.81,1.8c2.21,1.2,3.92,2.92,5.13,5.17c1.21,2.24,1.82,4.95,1.82,8.12c0,0.19-0.01,0.59-0.02,1.19&#10;&#9;&#9;&#9;c-0.01,0.6-0.04,1-0.09,1.19H807.57z M823.27,577.35c-0.02-0.77-0.28-1.64-0.77-2.63c-0.49-0.98-1.28-1.84-2.36-2.57&#10;&#9;&#9;&#9;c-1.08-0.73-2.52-1.1-4.32-1.1c-1.85,0-3.35,0.35-4.5,1.06c-1.15,0.71-2,1.55-2.56,2.52c-0.55,0.97-0.88,1.88-0.97,2.72H823.27z"/>
      <path class="st1" d="M844.61,595.93h-7.67v-29.56h7.67v4.93h-0.18c0.17-0.6,0.63-1.35,1.39-2.25c0.76-0.9,1.81-1.72,3.15-2.45&#10;&#9;&#9;&#9;c1.34-0.73,2.96-1.1,4.86-1.1c1.37,0,2.59,0.19,3.67,0.58c1.08,0.38,1.85,0.77,2.3,1.15l-3.1,6.34c-0.31-0.38-0.89-0.76-1.75-1.13&#10;&#9;&#9;&#9;c-0.85-0.37-1.9-0.56-3.15-0.56c-1.56,0-2.87,0.46-3.94,1.37s-1.88,2-2.43,3.28c-0.55,1.27-0.83,2.46-0.83,3.56V595.93z"/>
      <path class="st1" d="M887.31,595.93v-5.47c-0.19,0.58-0.74,1.37-1.64,2.38s-2.12,1.92-3.67,2.74c-1.55,0.82-3.38,1.22-5.49,1.22&#10;&#9;&#9;&#9;c-2.76,0-5.24-0.66-7.45-1.98c-2.21-1.32-3.95-3.16-5.22-5.51c-1.27-2.35-1.91-5.06-1.91-8.14s0.64-5.78,1.91-8.14&#10;&#9;&#9;&#9;c1.27-2.35,3.01-4.19,5.22-5.53c2.21-1.33,4.69-2,7.45-2c2.06,0,3.85,0.36,5.36,1.08c1.51,0.72,2.73,1.55,3.65,2.48&#10;&#9;&#9;&#9;c0.92,0.94,1.49,1.75,1.71,2.45v-5.15h7.63v29.56H887.31z M869.53,581.17c0,1.9,0.42,3.55,1.26,4.97&#10;&#9;&#9;&#9;c0.84,1.42,1.94,2.51,3.29,3.28c1.36,0.77,2.81,1.15,4.37,1.15c1.68,0,3.17-0.4,4.48-1.19c1.31-0.79,2.34-1.89,3.1-3.29&#10;&#9;&#9;&#9;c0.76-1.4,1.13-3.04,1.13-4.91s-0.38-3.51-1.13-4.91c-0.76-1.4-1.79-2.51-3.1-3.31c-1.31-0.8-2.8-1.21-4.48-1.21&#10;&#9;&#9;&#9;c-1.56,0-3.02,0.39-4.37,1.17c-1.36,0.78-2.45,1.88-3.29,3.29C869.94,577.62,869.53,579.27,869.53,581.17z"/>
      <path class="st1" d="M900.59,566.37h5.54v-12.13h7.63v12.13h7.31v6.48h-7.31v12.64c0,1.58,0.27,2.77,0.81,3.56&#10;&#9;&#9;&#9;c0.54,0.79,1.31,1.19,2.32,1.19c0.84,0,1.51-0.16,2-0.47c0.49-0.31,0.79-0.53,0.88-0.65l2.84,5.58c-0.14,0.14-0.56,0.38-1.26,0.72&#10;&#9;&#9;&#9;c-0.7,0.34-1.6,0.65-2.7,0.94c-1.1,0.29-2.36,0.43-3.78,0.43c-2.5,0-4.58-0.74-6.25-2.23c-1.67-1.49-2.5-3.82-2.5-6.98v-14.72&#10;&#9;&#9;&#9;h-5.54V566.37z"/>
      <path class="st1" d="M942.03,596.79c-3.1,0-5.85-0.68-8.26-2.03s-4.3-3.2-5.67-5.54s-2.05-5-2.05-7.97c0-2.98,0.68-5.65,2.05-8.03&#10;&#9;&#9;&#9;s3.26-4.25,5.67-5.63s5.17-2.07,8.26-2.07c3.1,0,5.83,0.69,8.21,2.07s4.24,3.26,5.6,5.63c1.36,2.38,2.03,5.05,2.03,8.03&#10;&#9;&#9;&#9;c0,2.98-0.68,5.63-2.03,7.97c-1.36,2.34-3.22,4.19-5.6,5.54S945.12,596.79,942.03,596.79z M942.03,590.31&#10;&#9;&#9;&#9;c1.73,0,3.23-0.4,4.5-1.19s2.26-1.87,2.95-3.24s1.04-2.93,1.04-4.68s-0.35-3.32-1.04-4.7s-1.68-2.48-2.95-3.29&#10;&#9;&#9;&#9;c-1.27-0.82-2.77-1.22-4.5-1.22c-1.73,0-3.23,0.41-4.52,1.22c-1.28,0.82-2.28,1.91-2.99,3.29s-1.06,2.95-1.06,4.7&#10;&#9;&#9;&#9;s0.35,3.31,1.06,4.68s1.7,2.45,2.99,3.24C938.79,589.92,940.3,590.31,942.03,590.31z"/>
      <path class="st1" d="M971.98,595.93h-7.67v-29.56h7.67v4.93h-0.18c0.17-0.6,0.63-1.35,1.39-2.25s1.81-1.72,3.15-2.45&#10;&#9;&#9;&#9;c1.34-0.73,2.96-1.1,4.86-1.1c1.37,0,2.59,0.19,3.67,0.58s1.85,0.77,2.3,1.15l-3.1,6.34c-0.31-0.38-0.89-0.76-1.75-1.13&#10;&#9;&#9;&#9;c-0.85-0.37-1.9-0.56-3.15-0.56c-1.56,0-2.88,0.46-3.94,1.37c-1.07,0.91-1.88,2-2.43,3.28c-0.55,1.27-0.83,2.46-0.83,3.56V595.93z&#10;&#9;&#9;&#9;"/>
      <path class="st1" d="M1010.17,548.41h14.62c2.98,0,5.67,0.5,8.08,1.51s4.34,2.56,5.78,4.64c1.44,2.09,2.16,4.78,2.16,8.06&#10;&#9;&#9;&#9;s-0.72,6.03-2.16,8.23c-1.44,2.2-3.37,3.85-5.78,4.95c-2.41,1.1-5.11,1.66-8.08,1.66h-7.06v18.47h-7.56V548.41z M1017.73,571.27&#10;&#9;&#9;&#9;h4.97c1.85,0,3.53-0.27,5.06-0.81c1.52-0.54,2.74-1.43,3.64-2.68c0.9-1.25,1.35-2.9,1.35-4.97c0-2.09-0.45-3.73-1.35-4.91&#10;&#9;&#9;&#9;c-0.9-1.19-2.11-2.03-3.64-2.54c-1.52-0.5-3.21-0.76-5.06-0.76h-4.97V571.27z"/>
      <path class="st1" d="M1055.46,595.93h-7.67v-29.56h7.67v4.93h-0.18c0.17-0.6,0.63-1.35,1.39-2.25s1.81-1.72,3.15-2.45&#10;&#9;&#9;&#9;c1.34-0.73,2.96-1.1,4.86-1.1c1.37,0,2.59,0.19,3.67,0.58s1.85,0.77,2.3,1.15l-3.1,6.34c-0.31-0.38-0.89-0.76-1.75-1.13&#10;&#9;&#9;&#9;c-0.85-0.37-1.9-0.56-3.15-0.56c-1.56,0-2.88,0.46-3.94,1.37c-1.07,0.91-1.88,2-2.43,3.28c-0.55,1.27-0.83,2.46-0.83,3.56V595.93z&#10;&#9;&#9;&#9;"/>
      <path class="st1" d="M1088.76,596.79c-3.1,0-5.85-0.68-8.26-2.03s-4.3-3.2-5.67-5.54s-2.05-5-2.05-7.97&#10;&#9;&#9;&#9;c0-2.98,0.68-5.65,2.05-8.03s3.26-4.25,5.67-5.63s5.17-2.07,8.26-2.07c3.1,0,5.83,0.69,8.21,2.07s4.24,3.26,5.6,5.63&#10;&#9;&#9;&#9;c1.36,2.38,2.03,5.05,2.03,8.03c0,2.98-0.68,5.63-2.03,7.97c-1.36,2.34-3.22,4.19-5.6,5.54S1091.86,596.79,1088.76,596.79z&#10;&#9;&#9;&#9; M1088.76,590.31c1.73,0,3.23-0.4,4.5-1.19s2.26-1.87,2.95-3.24s1.04-2.93,1.04-4.68s-0.35-3.32-1.04-4.7s-1.68-2.48-2.95-3.29&#10;&#9;&#9;&#9;c-1.27-0.82-2.77-1.22-4.5-1.22c-1.73,0-3.23,0.41-4.52,1.22c-1.28,0.82-2.28,1.91-2.99,3.29s-1.06,2.95-1.06,4.7&#10;&#9;&#9;&#9;s0.35,3.31,1.06,4.68s1.7,2.45,2.99,3.24C1085.53,589.92,1087.03,590.31,1088.76,590.31z"/>
      <path class="st1" d="M1134.88,595.93v-5.47c-0.19,0.58-0.74,1.37-1.64,2.38c-0.9,1.01-2.12,1.92-3.67,2.74&#10;&#9;&#9;&#9;c-1.55,0.82-3.38,1.22-5.49,1.22c-2.76,0-5.24-0.66-7.45-1.98c-2.21-1.32-3.95-3.16-5.22-5.51c-1.27-2.35-1.91-5.06-1.91-8.14&#10;&#9;&#9;&#9;s0.64-5.78,1.91-8.14c1.27-2.35,3.01-4.19,5.22-5.53c2.21-1.33,4.69-2,7.45-2c2.06,0,3.85,0.36,5.36,1.08&#10;&#9;&#9;&#9;c1.51,0.72,2.73,1.55,3.65,2.48c0.92,0.94,1.49,1.75,1.71,2.45v-5.15h7.63v29.56H1134.88z M1125.95,611.73&#10;&#9;&#9;&#9;c-2.26,0-4.35-0.22-6.28-0.67c-1.93-0.44-3.65-1.1-5.17-1.98c-1.51-0.88-2.74-1.95-3.67-3.22l4.79-4.75&#10;&#9;&#9;&#9;c0.5,0.62,1.15,1.28,1.94,1.96c0.79,0.68,1.84,1.26,3.13,1.73c1.3,0.47,2.94,0.7,4.93,0.7c1.94,0,3.61-0.4,4.99-1.19&#10;&#9;&#9;&#9;s2.44-1.88,3.17-3.26c0.73-1.38,1.1-2.97,1.1-4.77v-0.9h7.56v1.37c0,3.26-0.73,6.01-2.2,8.23c-1.46,2.22-3.44,3.9-5.94,5.04&#10;&#9;&#9;&#9;S1129.02,611.73,1125.95,611.73z M1117.09,581.17c0,1.9,0.42,3.55,1.26,4.97s1.94,2.51,3.29,3.28c1.36,0.77,2.81,1.15,4.37,1.15&#10;&#9;&#9;&#9;c1.68,0,3.17-0.4,4.48-1.19c1.31-0.79,2.34-1.89,3.1-3.29c0.76-1.4,1.13-3.04,1.13-4.91s-0.38-3.51-1.13-4.91s-1.79-2.51-3.1-3.31&#10;&#9;&#9;&#9;c-1.31-0.8-2.8-1.21-4.48-1.21c-1.56,0-3.02,0.39-4.37,1.17c-1.36,0.78-2.45,1.88-3.29,3.29S1117.09,579.27,1117.09,581.17z"/>
      <path class="st1" d="M1158.21,595.93h-7.67v-29.56h7.67v4.93h-0.18c0.17-0.6,0.63-1.35,1.39-2.25s1.81-1.72,3.15-2.45&#10;&#9;&#9;&#9;c1.34-0.73,2.96-1.1,4.86-1.1c1.37,0,2.59,0.19,3.67,0.58s1.85,0.77,2.3,1.15l-3.1,6.34c-0.31-0.38-0.89-0.76-1.75-1.13&#10;&#9;&#9;&#9;c-0.85-0.37-1.9-0.56-3.15-0.56c-1.56,0-2.88,0.46-3.94,1.37c-1.07,0.91-1.88,2-2.43,3.28c-0.55,1.27-0.83,2.46-0.83,3.56V595.93z&#10;&#9;&#9;&#9;"/>
      <path class="st1" d="M1200.9,595.93v-5.47c-0.19,0.58-0.74,1.37-1.64,2.38c-0.9,1.01-2.12,1.92-3.67,2.74&#10;&#9;&#9;&#9;c-1.55,0.82-3.38,1.22-5.49,1.22c-2.76,0-5.24-0.66-7.45-1.98c-2.21-1.32-3.95-3.16-5.22-5.51c-1.27-2.35-1.91-5.06-1.91-8.14&#10;&#9;&#9;&#9;s0.64-5.78,1.91-8.14c1.27-2.35,3.01-4.19,5.22-5.53c2.21-1.33,4.69-2,7.45-2c2.06,0,3.85,0.36,5.36,1.08&#10;&#9;&#9;&#9;c1.51,0.72,2.73,1.55,3.65,2.48c0.92,0.94,1.49,1.75,1.71,2.45v-5.15h7.63v29.56H1200.9z M1183.12,581.17&#10;&#9;&#9;&#9;c0,1.9,0.42,3.55,1.26,4.97s1.94,2.51,3.29,3.28c1.36,0.77,2.81,1.15,4.37,1.15c1.68,0,3.17-0.4,4.48-1.19&#10;&#9;&#9;&#9;c1.31-0.79,2.34-1.89,3.1-3.29c0.76-1.4,1.13-3.04,1.13-4.91s-0.38-3.51-1.13-4.91s-1.79-2.51-3.1-3.31&#10;&#9;&#9;&#9;c-1.31-0.8-2.8-1.21-4.48-1.21c-1.56,0-3.02,0.39-4.37,1.17c-1.36,0.78-2.45,1.88-3.29,3.29S1183.12,579.27,1183.12,581.17z"/>
      <path class="st1" d="M1253.75,565.51c2.21,0,4.11,0.47,5.71,1.4c1.6,0.94,2.83,2.38,3.71,4.32c0.88,1.94,1.31,4.43,1.31,7.45&#10;&#9;&#9;&#9;v17.24h-7.6v-15.88c0-2.86-0.4-5.03-1.21-6.52c-0.8-1.49-2.31-2.23-4.52-2.23c-1.2,0-2.33,0.32-3.38,0.97&#10;&#9;&#9;&#9;c-1.06,0.65-1.9,1.61-2.54,2.9s-0.95,2.91-0.95,4.88v15.88h-7.13v-15.88c0-2.86-0.49-5.03-1.46-6.52&#10;&#9;&#9;&#9;c-0.97-1.49-2.42-2.23-4.34-2.23c-1.22,0-2.35,0.31-3.38,0.94c-1.03,0.62-1.86,1.58-2.48,2.88s-0.94,2.94-0.94,4.93v15.88h-7.63&#10;&#9;&#9;&#9;v-29.56h7.63v4.43c0.26-0.74,0.86-1.52,1.78-2.34c0.92-0.82,2.08-1.51,3.47-2.09c1.39-0.58,2.92-0.86,4.57-0.86&#10;&#9;&#9;&#9;c1.8,0,3.29,0.33,4.48,0.99c1.19,0.66,2.14,1.48,2.84,2.47c0.71,0.98,1.23,1.97,1.57,2.95c0.34-0.98,0.99-1.97,1.96-2.95&#10;&#9;&#9;&#9;c0.97-0.98,2.19-1.81,3.65-2.47S1251.97,565.51,1253.75,565.51z"/>
    </g>
  </g>
</svg>